Coordinates
version=1
nRows=103
nColumns=11
inDegrees=no

Units are S.I. units (second, meters, Newtons, ...)
If the header above contains a line with 'inDegrees', this indicates whether rotational values are in degrees (yes) or radians (no).

endheader
time	pelvis_tilt	pelvis_tx	pelvis_ty	hip_flexion_r	knee_angle_r	ankle_angle_r	hip_flexion_l	knee_angle_l	ankle_angle_l	lumbar_extension
210.01	-0.0417533	0.0173362	0.973408	-0.10509	-0.771546	-0.104388	0.541552	-0.567591	0.169291	0
210.02	-0.0397991	0.0171853	0.976235	-0.0743677	-0.824855	-0.165264	0.518621	-0.557312	0.185104	0
210.03	-0.0402814	0.016414	0.978825	-0.0420127	-0.873899	-0.188826	0.502795	-0.55279	0.194868	0
210.04	-0.0420551	0.0153067	0.981333	-0.00910535	-0.919143	-0.173929	0.491119	-0.552014	0.200583	0
210.05	-0.0438174	0.0136991	0.984006	0.0250505	-0.961651	-0.144292	0.475823	-0.544573	0.206828	0
210.06	-0.044875	0.0124963	0.986706	0.0592151	-1.0005	-0.121585	0.45752	-0.534178	0.216044	0
210.07	-0.0470864	0.0110935	0.989149	0.095636	-1.03626	-0.107678	0.440851	-0.524189	0.224289	0
210.08	-0.0491425	0.00924357	0.991714	0.132124	-1.06801	-0.0968054	0.424702	-0.513803	0.229834	0
210.09	-0.0496237	0.00747958	0.994487	0.16558	-1.09317	-0.0888393	0.405217	-0.500778	0.233932	0
210.1	-0.0494325	0.00550682	0.997235	0.197581	-1.11369	-0.0773599	0.382743	-0.48206	0.238263	0
210.11	-0.048913	0.00354408	0.999935	0.2281	-1.12866	-0.0638854	0.359892	-0.463147	0.242473	0
210.12	-0.0470872	0.00175997	1.0026	0.25592	-1.13811	-0.0513285	0.335656	-0.445559	0.246458	0
210.13	-0.0424627	7.43441e-07	1.00526	0.280333	-1.14398	-0.0377104	0.307824	-0.426964	0.249483	0
210.14	-0.0378977	-0.00203829	1.0078	0.304523	-1.14544	-0.0250364	0.279724	-0.407191	0.253225	0
210.15	-0.0333592	-0.00397786	1.01012	0.327198	-1.14206	-0.0080057	0.253065	-0.389621	0.257109	0
210.16	-0.0278179	-0.00592327	1.01225	0.347537	-1.1341	0.00782543	0.224382	-0.370027	0.26076	0
210.17	-0.0230203	-0.00802833	1.01382	0.367891	-1.12272	0.0237997	0.197214	-0.351407	0.265091	0
210.18	-0.0195911	-0.00991768	1.01506	0.387698	-1.10641	0.0398386	0.172154	-0.333992	0.270061	0
210.19	-0.0161643	-0.0117565	1.01624	0.405867	-1.0849	0.0550684	0.146926	-0.315536	0.276238	0
210.2	-0.0132802	-0.0137286	1.01708	0.423514	-1.05908	0.0667379	0.123994	-0.300744	0.279367	0
210.21	-0.0110018	-0.0156644	1.01748	0.440122	-1.02816	0.0756653	0.102293	-0.287829	0.282183	0
210.22	-0.0113129	-0.0177399	1.01734	0.458495	-0.994077	0.0849063	0.0841136	-0.276122	0.287821	0
210.23	-0.0127327	-0.0198478	1.01695	0.47643	-0.955655	0.093657	0.0679591	-0.26585	0.294928	0
210.24	-0.0141638	-0.0219162	1.0163	0.492678	-0.913167	0.103903	0.0516301	-0.254654	0.303813	0
210.25	-0.0164788	-0.024005	1.01531	0.507433	-0.865524	0.109517	0.0372922	-0.245734	0.310905	0
210.26	-0.0172008	-0.0256583	1.0143	0.517444	-0.813069	0.109668	0.0210683	-0.237409	0.317971	0
210.27	-0.023457	-0.0272954	1.01264	0.532836	-0.758882	0.105	0.0115411	-0.230318	0.323739	0
210.28	-0.0188425	-0.0285688	1.01151	0.533676	-0.699665	0.103294	-0.0111563	-0.221486	0.332131	0
210.29	-0.0182034	-0.0297217	1.00999	0.5366	-0.63684	0.0980017	-0.0295576	-0.213098	0.34014	0
210.3	-0.0161947	-0.0308092	1.00854	0.535795	-0.571111	0.087435	-0.0506799	-0.202361	0.348329	0
210.31	-0.0505664	-0.0245784	1.00435	0.55755	-0.494542	0.0806402	-0.048328	-0.180556	0.354621	0
210.32	-0.0518328	-0.0253917	1.00198	0.558958	-0.430173	0.0714934	-0.0632105	-0.176263	0.362409	0
210.33	-0.0511531	-0.0256469	0.999796	0.557526	-0.367931	0.0628873	-0.0818278	-0.16955	0.372315	0
210.34	-0.046557	-0.0250553	0.997766	0.551512	-0.310017	0.054163	-0.105262	-0.163143	0.37986	0
210.35	-0.0486317	-0.0252888	0.9951	0.552708	-0.254643	0.0489449	-0.122933	-0.151616	0.38706	0
210.36	-0.0608054	-0.0271677	0.991331	0.566837	-0.203995	0.0448424	-0.125591	-0.143338	0.396348	0
210.37	-0.0460549	-0.0248621	0.989805	0.550334	-0.164732	0.0413274	-0.159105	-0.142285	0.407495	0
210.38	-0.0600099	-0.0272236	0.985721	0.565734	-0.124558	0.0382546	-0.161811	-0.130227	0.412251	0
210.39	-0.0608691	-0.0273391	0.982655	0.569465	-0.0994117	0.033375	-0.175964	-0.128909	0.420898	0
210.4	-0.0606193	-0.0271041	0.979631	0.571798	-0.0808648	0.0304179	-0.192281	-0.127389	0.430628	0
210.41	-0.0606929	-0.0269188	0.976631	0.575265	-0.0721864	0.0311681	-0.207042	-0.12818	0.439164	0
210.42	-0.0621082	-0.0270901	0.973575	0.582137	-0.0758973	0.0308633	-0.218933	-0.130813	0.445246	0
210.43	-0.0632103	-0.0268834	0.970478	0.590753	-0.092586	0.0318907	-0.231266	-0.133404	0.448171	0
210.44	-0.0629334	-0.0261158	0.967626	0.598358	-0.11858	0.0344315	-0.245714	-0.135445	0.450689	0
210.45	-0.0638974	-0.0253533	0.964931	0.60683	-0.150109	0.034846	-0.257793	-0.139603	0.452056	0
210.46	-0.065001	-0.0245647	0.962424	0.613625	-0.183213	0.0311035	-0.268508	-0.146081	0.451803	0
210.47	-0.0649076	-0.0232493	0.960231	0.617256	-0.21506	0.0280695	-0.279849	-0.154981	0.447587	0
210.48	-0.0649911	-0.0218458	0.958054	0.621465	-0.245423	0.0216531	-0.290391	-0.164438	0.438356	0
210.49	-0.0183863	-0.0256361	0.95966	0.587896	-0.283794	-0.00376259	-0.334183	-0.194633	0.42879	0
210.5	-0.021543	-0.024095	0.957969	0.59165	-0.301624	-0.0358735	-0.336678	-0.211864	0.425054	0
210.51	-0.0294745	-0.0229121	0.956304	0.601357	-0.32248	-0.0617459	-0.33148	-0.233586	0.415895	0
210.52	-0.0395628	-0.021874	0.954897	0.615676	-0.350842	-0.0674142	-0.320957	-0.260262	0.400631	0
210.53	-0.047406	-0.0206382	0.954066	0.632802	-0.392474	-0.0523599	-0.310358	-0.290284	0.380044	0
210.54	-0.0507871	-0.0188727	0.953688	0.646917	-0.440372	-0.0270581	-0.302331	-0.322987	0.353384	0
210.55	-0.0508739	-0.0168883	0.953756	0.655592	-0.485495	-0.00103318	-0.294632	-0.359983	0.320402	0
210.56	-0.0492507	-0.0147041	0.954226	0.657949	-0.523323	0.0280355	-0.283518	-0.405426	0.281501	0
210.57	-0.0471739	-0.0130086	0.955287	0.656416	-0.5536	0.0521692	-0.267766	-0.456103	0.235651	0
210.58	-0.0468409	-0.0117557	0.95647	0.651244	-0.573811	0.074303	-0.245859	-0.510292	0.185378	0
210.59	-0.0465906	-0.0109415	0.958044	0.640825	-0.583691	0.0986538	-0.219909	-0.568082	0.128701	0
210.6	-0.0461718	-0.0106626	0.959978	0.626456	-0.586235	0.122984	-0.190783	-0.629526	0.070734	0
210.61	-0.0447815	-0.0106957	0.96238	0.609447	-0.584955	0.139242	-0.159279	-0.693404	0.00935148	0
210.62	-0.0416598	-0.0104774	0.965332	0.590615	-0.584013	0.151904	-0.128081	-0.755106	-0.0539872	0
210.63	-0.037927	-0.0102567	0.968345	0.56995	-0.581592	0.167861	-0.0962243	-0.814307	-0.112077	0
210.64	-0.0352859	-0.01041	0.971312	0.549863	-0.578429	0.183691	-0.0628738	-0.871487	-0.145226	0
210.65	-0.0343903	-0.010731	0.974021	0.531102	-0.573806	0.199147	-0.0311533	-0.921398	-0.152008	0
210.66	-0.034114	-0.0111783	0.976895	0.513592	-0.569558	0.210856	-0.00098789	-0.963781	-0.133535	0
210.67	-0.0347126	-0.0119612	0.979664	0.497203	-0.565167	0.220325	0.0319773	-1.00475	-0.107609	0
210.68	-0.0372662	-0.0132424	0.982119	0.483639	-0.559938	0.2303	0.0700293	-1.04484	-0.0902149	0
210.69	-0.0394082	-0.0145785	0.984779	0.468716	-0.552519	0.239502	0.107776	-1.07904	-0.0815706	0
210.7	-0.0404332	-0.0159514	0.987709	0.45066	-0.54172	0.247064	0.144463	-1.10929	-0.0809622	0
210.71	-0.0418227	-0.0171788	0.990577	0.432284	-0.5301	0.252248	0.180632	-1.13546	-0.0835111	0
210.72	-0.0426206	-0.0184625	0.993499	0.412913	-0.517738	0.258014	0.214728	-1.15491	-0.0808745	0
210.73	-0.0422708	-0.0200379	0.996453	0.391718	-0.503687	0.263621	0.246893	-1.16829	-0.0706921	0
210.74	-0.040453	-0.0217392	0.999372	0.367995	-0.486918	0.2693	0.276575	-1.17689	-0.0547472	0
210.75	-0.0379906	-0.0231027	1.00218	0.342459	-0.468757	0.275139	0.303568	-1.18019	-0.0433278	0
210.76	-0.0345008	-0.0242383	1.00496	0.314947	-0.449606	0.281175	0.327651	-1.17859	-0.0325782	0
210.77	-0.0284966	-0.0252473	1.00779	0.285329	-0.432367	0.286525	0.347391	-1.17191	-0.020388	0
210.78	-0.0222171	-0.0264119	1.01027	0.255779	-0.415107	0.291112	0.365782	-1.16039	-0.00834089	0
210.79	-0.0177357	-0.0277627	1.01226	0.227804	-0.396111	0.295347	0.384941	-1.14397	0.00159275	0
210.8	-0.0139015	-0.0292136	1.01411	0.200573	-0.377162	0.299072	0.403856	-1.1224	0.0140356	0
210.81	-0.010754	-0.0303097	1.01572	0.174031	-0.358721	0.304058	0.421089	-1.09518	0.0258649	0
210.82	-0.00827559	-0.0313114	1.01697	0.148109	-0.340218	0.308013	0.436725	-1.06354	0.0369463	0
210.83	-0.00614382	-0.0322955	1.0178	0.12312	-0.32209	0.310129	0.451517	-1.02877	0.0467453	0
210.84	-0.00486095	-0.0335251	1.01821	0.100932	-0.307085	0.313766	0.466217	-0.989727	0.0589348	0
210.85	-0.00491619	-0.0346234	1.01814	0.0814255	-0.294543	0.321096	0.480205	-0.946118	0.064431	0
210.86	-0.00418407	-0.0354726	1.01794	0.0607144	-0.281616	0.326844	0.489812	-0.895883	0.0720128	0
210.87	-0.00349635	-0.0366118	1.01745	0.0405892	-0.269109	0.331749	0.497679	-0.841097	0.0755308	0
210.88	-0.00449744	-0.0380455	1.01638	0.0240754	-0.259892	0.337566	0.507289	-0.785366	0.0765145	0
210.89	-0.00630143	-0.0393636	1.01504	0.00902075	-0.252477	0.346484	0.515407	-0.725106	0.0741288	0
210.9	-0.00706043	-0.0399879	1.01375	-0.00803005	-0.244638	0.354922	0.517451	-0.657959	0.0685402	0
210.91	-0.0062227	-0.0402032	1.01208	-0.0276571	-0.23607	0.363186	0.514737	-0.587184	0.0618511	0
210.92	-0.00313328	-0.0400903	1.0102	-0.050261	-0.227233	0.372976	0.511472	-0.520519	0.0554133	0
210.93	0.000821266	-0.0398181	1.00827	-0.0736755	-0.219148	0.382897	0.504916	-0.452695	0.050494	0
210.94	0.00386215	-0.0396296	1.0061	-0.0954133	-0.212217	0.391893	0.499063	-0.386378	0.0457377	0
210.95	0.00676863	-0.0394408	1.0038	-0.116923	-0.205492	0.400182	0.495826	-0.324787	0.0386726	0
210.96	0.00898561	-0.0392632	1.00134	-0.137926	-0.197772	0.409939	0.493936	-0.267012	0.0339204	0
210.97	0.0121614	-0.0388226	0.99879	-0.160241	-0.189884	0.419848	0.49126	-0.216106	0.0351094	0
210.98	0.0147074	-0.0383195	0.996103	-0.180372	-0.184839	0.428483	0.48946	-0.17112	0.0377975	0
210.99	0.0163202	-0.037917	0.993361	-0.199352	-0.180054	0.435903	0.488143	-0.130611	0.0381997	0
211	0.0166728	-0.037594	0.990367	-0.215902	-0.177755	0.44413	0.49001	-0.100646	0.0431515	0
211.01	0.0173061	-0.0372874	0.987303	-0.231288	-0.178574	0.452254	0.492853	-0.0809794	0.0546246	0
211.02	0.0170971	-0.0367938	0.984163	-0.245916	-0.179853	0.459873	0.496134	-0.0705984	0.0662396	0
211.03	0.0164295	-0.0362071	0.981093	-0.260211	-0.180985	0.46687	0.500825	-0.0709124	0.0731678	0
